ffmpeg version 3.4.8-0ubuntu0.2 Copyright (c) 2000-2020 the FFmpeg developers
  built with gcc 7 (Ubuntu 7.5.0-3ubuntu1~18.04)
  configuration: --prefix=/usr --extra-version=0ubuntu0.2 --toolchain=hardened --libdir=/usr/lib/x86_64-linux-gnu --incdir=/usr/include/x86_64-linux-gnu --enable-gpl --disable-stripping --enable-avresample --enable-avisynth --enable-gnutls --enable-ladspa --enable-libass --enable-libbluray --enable-libbs2b --enable-libcaca --enable-libcdio --enable-libflite --enable-libfontconfig --enable-libfreetype --enable-libfribidi --enable-libgme --enable-libgsm --enable-libmp3lame --enable-libmysofa --enable-libopenjpeg --enable-libopenmpt --enable-libopus --enable-libpulse --enable-librubberband --enable-librsvg --enable-libshine --enable-libsnappy --enable-libsoxr --enable-libspeex --enable-libssh --enable-libtheora --enable-libtwolame --enable-libvorbis --enable-libvpx --enable-libwavpack --enable-libwebp --enable-libx265 --enable-libxml2 --enable-libxvid --enable-libzmq --enable-libzvbi --enable-omx --enable-openal --enable-opengl --enable-sdl2 --enable-libdc1394 --enable-libdrm --enable-libiec61883 --enable-chromaprint --enable-frei0r --enable-libopencv --enable-libx264 --enable-shared
  libavutil      55. 78.100 / 55. 78.100
  libavcodec     57.107.100 / 57.107.100
  libavformat    57. 83.100 / 57. 83.100
  libavdevice    57. 10.100 / 57. 10.100
  libavfilter     6.107.100 /  6.107.100
  libavresample   3.  7.  0 /  3.  7.  0
  libswscale      4.  8.100 /  4.  8.100
  libswresample   2.  9.100 /  2.  9.100
  libpostproc    54.  7.100 / 54.  7.100
[rawvideo @ 0x559fe27f2a20] Estimating duration from bitrate, this may be inaccurate
Input #0, rawvideo, from '../../SVC-Encoder-20220109T061506Z-001/SVC-Encoder/Dataset/RollerCoaster/ERP_8x8/tile_yuv/Tile_40_480x240.yuv':
  Duration: 00:00:10.00, start: 0.000000, bitrate: 41472 kb/s
    Stream #0:0: Video: rawvideo (I420 / 0x30323449), yuv420p, 480x240, 41472 kb/s, 30 tbr, 30 tbn, 30 tbc
Stream mapping:
  Stream #0:0 -> #0:0 (rawvideo (native) -> h264 (libx264))
Press [q] to stop, [?] for help
[libx264 @ 0x559fe27ffc60] using cpu capabilities: MMX2 SSE2Fast LZCNT SSSE3 SSE4.2 AVX
[libx264 @ 0x559fe27ffc60] profile High, level 2.1
Output #0, rawvideo, to 'RollerCoaster_Tile_40_480x240_x264_QP_40.h264':
  Metadata:
    encoder         : Lavf57.83.100
    Stream #0:0: Video: h264 (libx264), yuv420p, 480x240, q=-1--1, 30 fps, 30 tbn, 30 tbc
    Metadata:
      encoder         : Lavc57.107.100 libx264
    Side data:
      cpb: bitrate max/min/avg: 0/0/0 buffer size: 0 vbv_delay: -1
frame=  203 fps=0.0 q=46.0 PSNR=Y:nan U:nan V:nan *:nan size=      37kB time=00:00:05.33 bitrate=  56.5kbits/s speed=10.7x    frame=  300 fps=0.0 q=46.0 LPSNR=Y:inf U:inf V:inf *:inf size=      67kB time=00:00:09.93 bitrate=  55.3kbits/s speed=12.6x    
video:67kB audio:0kB subtitle:0kB other streams:0kB global headers:0kB muxing overhead: 0.000000%
[libx264 @ 0x559fe27ffc60] frame I:2     Avg QP:37.59  size:  5511  PSNR Mean Y:31.94 U:41.97 V:41.45 Avg:33.47 Global:33.39
[libx264 @ 0x559fe27ffc60] frame P:76    Avg QP:39.30  size:   450  PSNR Mean Y:31.21 U:41.89 V:41.85 Avg:32.78 Global:32.77
[libx264 @ 0x559fe27ffc60] frame B:222   Avg QP:45.60  size:   106  PSNR Mean Y:30.88 U:41.80 V:41.75 Avg:32.46 Global:32.45
[libx264 @ 0x559fe27ffc60] consecutive B-frames:  1.0%  0.7%  1.0% 97.3%
[libx264 @ 0x559fe27ffc60] mb I  I16..4: 25.1% 55.6% 19.3%
[libx264 @ 0x559fe27ffc60] mb P  I16..4:  0.5%  0.7%  0.2%  P16..4: 33.8%  4.0%  0.7%  0.0%  0.0%    skip:60.1%
[libx264 @ 0x559fe27ffc60] mb B  I16..4:  0.0%  0.0%  0.0%  B16..8: 17.5%  0.4%  0.0%  direct: 0.0%  skip:82.1%  L0:39.0% L1:60.7% BI: 0.4%
[libx264 @ 0x559fe27ffc60] 8x8 transform intra:53.5% inter:87.5%
[libx264 @ 0x559fe27ffc60] coded y,uvDC,uvAC intra: 49.2% 45.1% 6.5% inter: 1.2% 0.7% 0.0%
[libx264 @ 0x559fe27ffc60] i16 v,h,dc,p: 29% 25% 23% 23%
[libx264 @ 0x559fe27ffc60] i8 v,h,dc,ddl,ddr,vr,hd,vl,hu:  7% 32% 25%  3%  5%  4%  9%  4% 11%
[libx264 @ 0x559fe27ffc60] i4 v,h,dc,ddl,ddr,vr,hd,vl,hu: 13% 26% 19%  4% 12%  8%  9%  2%  7%
[libx264 @ 0x559fe27ffc60] i8c dc,h,v,p: 68% 15% 11%  6%
[libx264 @ 0x559fe27ffc60] Weighted P-Frames: Y:0.0% UV:0.0%
[libx264 @ 0x559fe27ffc60] ref P L0: 58.5% 14.9% 20.4%  6.2%
[libx264 @ 0x559fe27ffc60] ref B L0: 72.0% 23.9%  4.1%
[libx264 @ 0x559fe27ffc60] ref B L1: 76.6% 23.4%
[libx264 @ 0x559fe27ffc60] PSNR Mean Y:30.967 U:41.819 V:41.775 Avg:32.551 Global:32.535 kb/s:54.91
